<svg version="1.0" xmlns="http://www.w3.org/2000/svg"
 width="771.000000pt" height="686.000000pt" viewBox="0 0 771.000000 686.000000"
 preserveAspectRatio="xMidYMid meet">
<g transform="translate(0.000000,686.000000) scale(0.100000,-0.100000)"
fill="#000000" stroke="none">
<path fill="#3B589E" d="M6586 6820 c-132 -205 -329 -433 -516 -594 -327 -283 -657 -471
-1310 -746 -737 -310 -944 -413 -1216 -602 -423 -293 -729 -687 -929 -1193
-26 -66 -49 -124 -52 -128 -3 -5 -24 26 -48 68 -231 404 -577 629 -1155 750
-288 60 -380 94 -517 191 -68 48 -78 52 -87 28 -14 -36 -4 -105 29 -199 34
-100 34 -100 -13 -140 -156 -133 -292 -326 -345 -490 -9 -27 -28 -93 -41 -146
-13 -53 -40 -130 -58 -170 -33 -72 -213 -368 -290 -478 -34 -48 -38 -61 -38
-113 0 -117 48 -279 94 -317 25 -21 113 -17 145 6 14 11 52 69 84 129 65 122
85 147 139 175 49 25 73 24 92 -3 36 -52 3 -157 -79 -251 -74 -85 -58 -103 86
-95 104 6 122 20 168 129 30 73 46 95 120 170 89 89 166 146 261 194 151 76
301 210 347 311 58 126 35 287 -62 443 -26 40 -44 75 -42 78 10 9 92 -106 123
-172 77 -165 69 -365 -21 -581 -86 -204 -107 -260 -127 -335 -12 -44 -19 -82
-15 -85 4 -4 533 -164 543 -164 1 0 2 -69 2 -153 1 -349 78 -574 269 -787 31
-36 143 -141 247 -235 255 -228 355 -356 446 -568 19 -43 39 -82 45 -87 26
-21 209 -42 410 -47 178 -4 231 -2 348 16 76 11 142 23 148 27 17 10 -11 24
-49 24 -106 0 -288 62 -404 136 -298 191 -482 634 -439 1054 15 138 35 217 81
317 85 182 173 229 785 417 416 128 578 192 775 302 254 143 458 356 569 595
47 100 94 249 89 284 -3 23 -8 21 -127 -56 -290 -190 -513 -298 -1136 -554
-454 -186 -635 -287 -799 -445 -107 -103 -202 -242 -256 -374 -81 -198 -128
-466 -132 -741 -1 -121 -2 -130 -8 -70 -12 109 -11 321 1 441 51 525 265 843
724 1076 128 64 260 119 620 253 143 54 320 124 394 157 458 202 781 462 1013
818 79 120 206 365 196 376 -8 8 -12 5 -141 -93 -154 -117 -314 -219 -527
-336 -127 -69 -350 -166 -700 -307 -387 -154 -645 -274 -785 -365 -493 -317
-769 -778 -946 -1580 -29 -130 -29 -130 -23 -50 14 203 70 483 139 690 67 203
192 434 324 598 62 78 227 239 307 299 196 150 495 310 844 453 102 41 205 84
230 95 25 10 104 44 175 73 373 157 648 305 870 469 135 100 377 340 473 468
139 187 259 404 346 629 57 145 46 149 -63 25 -280 -315 -648 -595 -1056 -804
-202 -103 -306 -147 -726 -310 -488 -189 -670 -275 -879 -415 -504 -337 -808
-835 -1026 -1678 -39 -152 -44 -164 -38 -102 18 212 93 551 169 759 234 646
634 1051 1375 1391 80 37 305 134 500 215 522 217 706 305 937 448 308 191
576 437 759 697 159 225 284 480 378 774 45 137 45 179 2 111z"/>
<path fill="#3B589E" d="M1106 2542 c-20 -19 2 -321 34 -487 117 -601 512 -1081 1107 -1345
139 -62 343 -130 412 -137 53 -6 53 -6 46 18 -15 52 -86 192 -135 265 -69 101
-169 205 -361 375 -85 75 -182 166 -213 201 -191 209 -267 422 -284 791 -8
172 26 145 -307 242 -235 69 -293 84 -299 77z"/>
<path fill="#3B589E" d="M3535 2413 c-356 -49 -588 -342 -589 -743 0 -126 13 -188 64 -295 96
-201 316 -378 556 -447 73 -21 98 -23 338 -23 l258 0 60 178 c33 98 57 181 54
185 -4 3 -35 -23 -69 -60 -102 -110 -199 -159 -345 -177 -225 -28 -430 84
-561 307 -69 116 -86 186 -86 342 1 157 15 220 77 350 31 63 58 102 107 151
90 90 149 113 286 113 107 0 182 -17 267 -60 51 -26 153 -122 163 -155 7 -21
35 -26 35 -6 0 24 -57 317 -63 323 -3 3 -31 -3 -62 -15 -72 -27 -84 -27 -200
9 -96 29 -189 37 -290 23z"/>
<path fill="#3B589E" d="M4410 2405 c0 -8 9 -19 21 -25 48 -26 49 -35 49 -720 0 -683 0 -681
-49 -724 -11 -11 -21 -23 -21 -28 0 -4 65 -8 145 -8 80 0 145 4 145 8 0 5 -9
17 -21 28 -50 45 -49 33 -49 667 0 634 0 628 47 610 11 -5 212 -168 446 -363
l427 -355 0 -235 c0 -209 -3 -240 -19 -277 -11 -23 -29 -46 -40 -53 -45 -24
-18 -30 134 -30 85 0 155 4 155 8 0 5 -9 17 -21 28 -50 45 -49 29 -49 724 0
700 -1 687 51 724 12 8 18 19 14 25 -8 15 -291 15 -300 1 -4 -6 5 -20 19 -31
52 -41 56 -61 56 -288 0 -126 -4 -212 -10 -216 -16 -10 -49 13 -225 159 -93
78 -219 182 -278 231 -105 86 -108 90 -102 122 6 33 6 33 -260 33 -226 0 -265
-2 -265 -15z"/>
<path fill="#3B589E" d="M6492 2409 c-143 -24 -257 -82 -357 -183 -114 -114 -178 -259 -205
-466 -19 -140 -1 -257 60 -385 107 -223 350 -405 612 -459 57 -12 137 -16 307
-16 229 0 229 0 245 43 28 77 106 310 106 319 0 20 -27 5 -49 -28 -131 -191
-439 -264 -661 -156 -140 67 -277 232 -332 397 -33 100 -33 304 0 420 34 117
86 210 162 286 88 89 148 113 285 113 123 0 215 -25 302 -84 54 -36 133 -120
133 -142 0 -4 7 -8 15 -8 8 0 15 6 15 13 0 27 -57 318 -64 324 -3 4 -22 -1
-42 -11 -65 -31 -111 -30 -218 3 -105 33 -200 39 -314 20z"/>
<path fill="#3B589E" d="M1144 494 c-19 -15 -19 -15 1 -6 11 5 27 12 35 15 13 5 13 6 -1 6 -8
1 -24 -6 -35 -15z"/>
<path fill="#3B589E" d="M3948 503 c18 -2 45 -2 60 0 15 2 0 4 -33 4 -33 0 -45 -2 -27 -4z"/>
<path fill="#3B589E" d="M7140 475 c-7 -8 -22 -16 -34 -16 -18 -1 -18 -2 -3 -6 10 -3 26 2 36
11 14 13 20 13 31 3 12 -10 12 -9 1 6 -16 21 -16 21 -31 2z"/>
<path fill="#3B589E" d="M3486 454 c-21 -21 -20 -47 3 -75 18 -22 19 -22 45 -6 32 22 36 71 7
87 -27 14 -37 13 -55 -6z"/>
<path fill="#3B589E" d="M3980 390 c0 -73 0 -73 42 -67 102 14 102 117 1 133 -43 7 -43 7 -43
-66z"/>
<path fill="#3B589E" d="M1773 405 c0 -27 2 -38 4 -22 2 15 2 37 0 50 -2 12 -4 0 -4 -28z"/>
<path fill="#3B589E" d="M6193 405 c0 -27 2 -38 4 -22 2 15 2 37 0 50 -2 12 -4 0 -4 -28z"/>
<path fill="#3B589E" d="M6952 425 c15 -16 20 -17 30 -6 11 11 10 13 0 7 -7 -4 -21 -2 -30 5
-15 12 -15 11 0 -6z"/>
<path fill="#3B589E" d="M6750 360 c-18 -12 -2 -12 25 0 13 6 15 9 5 9 -8 0 -22 -4 -30 -9z"/>
<path fill="#3B589E" d="M1394 245 c0 -66 1 -92 3 -57 2 34 2 88 0 120 -2 31 -3 3 -3 -63z"/>
<path fill="#3B589E" d="M1454 245 c0 -66 1 -92 3 -57 2 34 2 88 0 120 -2 31 -3 3 -3 -63z"/>
<path fill="#3B589E" d="M1741 343 c0 -12 6 -26 13 -30 10 -6 16 -30 19 -78 3 -70 3 -70 5 8
2 61 -1 77 -12 77 -8 0 -17 10 -19 23 -4 22 -4 22 -6 0z"/>
<path fill="#3B589E" d="M1881 343 c-1 -16 -9 -23 -28 -26 -28 -4 -28 -4 0 -6 28 -1 43 17 34
41 -3 7 -6 3 -6 -9z"/>
<path fill="#3B589E" d="M2234 245 c0 -66 1 -92 3 -57 2 34 2 88 0 120 -2 31 -3 3 -3 -63z"/>
<path fill="#3B589E" d="M4524 185 c0 -99 2 -138 3 -87 2 51 2 132 0 180 -1 48 -3 6 -3 -93z"/>
<path fill="#3B589E" d="M4854 245 c0 -66 1 -92 3 -57 2 34 2 88 0 120 -2 31 -3 3 -3 -63z"/>
<path fill="#3B589E" d="M5884 245 c0 -66 1 -92 3 -57 2 34 2 88 0 120 -2 31 -3 3 -3 -63z"/>
<path fill="#3B589E" d="M6161 343 c0 -12 6 -26 13 -30 10 -6 16 -30 19 -78 3 -70 3 -70 5 8
2 61 -1 77 -12 77 -8 0 -17 10 -19 23 -4 22 -4 22 -6 0z"/>
<path fill="#3B589E" d="M6301 343 c-1 -16 -9 -23 -28 -26 -28 -4 -28 -4 0 -6 28 -1 43 17 34
41 -3 7 -6 3 -6 -9z"/>
<path fill="#3B589E" d="M2020 317 c-14 -7 -26 -20 -28 -30 -3 -15 5 -17 62 -17 36 0 66 3 66
8 0 13 -15 29 -37 41 -27 14 -32 14 -63 -2z"/>
<path fill="#3B589E" d="M4310 317 c-14 -7 -26 -20 -28 -30 -3 -15 5 -17 62 -17 36 0 66 3 66
8 0 13 -15 29 -37 41 -27 14 -32 14 -63 -2z"/>
<path fill="#3B589E" d="M5150 317 c-14 -7 -26 -20 -28 -30 -3 -15 5 -17 62 -17 36 0 66 3 66
8 0 13 -15 29 -37 41 -27 14 -32 14 -63 -2z"/>
<path fill="#3B589E" d="M5670 317 c-14 -7 -26 -20 -28 -30 -3 -15 5 -17 62 -17 36 0 66 3 66
8 0 13 -15 29 -37 41 -27 14 -32 14 -63 -2z"/>
<path fill="#3B589E" d="M7330 317 c-14 -7 -26 -20 -28 -30 -3 -15 5 -17 62 -17 36 0 66 3 66
8 0 13 -15 29 -37 41 -27 14 -32 14 -63 -2z"/>
<path fill="#3B589E" d="M2760 300 c-45 -45 -13 -130 50 -130 41 0 70 31 70 75 0 44 -29 75
-70 75 -17 0 -39 -9 -50 -20z"/>
<path fill="#3B589E" d="M4601 294 c-12 -15 -21 -37 -21 -49 0 -36 37 -75 71 -75 37 0 79 39
79 73 0 69 -88 104 -129 51z"/>
<path fill="#3B589E" d="M6430 298 c-44 -47 -13 -128 50 -128 41 0 70 31 70 75 0 67 -75 101
-120 53z"/>
<path fill="#3B589E" d="M7010 300 c-45 -45 -13 -130 50 -130 38 0 80 39 80 75 0 61 -87 98
-130 55z"/>
<path fill="#3B589E" d="M3452 277 c-42 -44 -19 -97 41 -97 18 0 43 7 55 16 22 15 22 15 -15
59 -21 25 -43 44 -49 45 -6 0 -20 -10 -32 -23z"/>
<path fill="#3B589E" d="M2293 210 c0 -47 2 -66 4 -42 2 23 2 61 0 85 -2 23 -4 4 -4 -43z"/>
<path fill="#3B589E" d="M2393 210 c0 -47 2 -66 4 -42 2 23 2 61 0 85 -2 23 -4 4 -4 -43z"/>
<path fill="#3B589E" d="M2453 210 c0 -47 2 -66 4 -42 2 23 2 61 0 85 -2 23 -4 4 -4 -43z"/>
<path fill="#3B589E" d="M2553 210 c0 -47 2 -66 4 -42 2 23 2 61 0 85 -2 23 -4 4 -4 -43z"/>
<path fill="#3B589E" d="M2613 210 c0 -47 2 -66 4 -42 2 23 2 61 0 85 -2 23 -4 4 -4 -43z"/>
<path fill="#3B589E" d="M5943 210 c0 -47 2 -66 4 -42 2 23 2 61 0 85 -2 23 -4 4 -4 -43z"/>
<path fill="#3B589E" d="M2171 263 c-1 -21 -6 -22 -93 -26 l-93 -3 93 -2 c95 -2 113 5 99 40
-3 7 -6 3 -6 -9z"/>
<path fill="#3B589E" d="M4460 260 c0 -17 -8 -20 -92 -23 -93 -3 -93 -3 5 -5 97 -2 97 -2 97
23 0 14 -2 25 -5 25 -3 0 -5 -9 -5 -20z"/>
<path fill="#3B589E" d="M4783 245 c0 -22 2 -30 4 -17 2 12 2 30 0 40 -3 9 -5 -1 -4 -23z"/>
<path fill="#3B589E" d="M4913 205 c0 -44 2 -61 4 -37 2 23 2 59 0 80 -2 20 -4 1 -4 -43z"/>
<path fill="#3B589E" d="M5301 263 c-1 -21 -6 -22 -93 -26 l-93 -3 93 -2 c95 -2 113 5 99 40
-3 7 -6 3 -6 -9z"/>
<path fill="#3B589E" d="M5388 253 c13 -13 28 -23 35 -23 7 0 3 6 -8 12 -11 6 -27 16 -35 22
-9 6 -5 1 8 -11z"/>
<path fill="#3B589E" d="M5820 260 c0 -17 -8 -20 -92 -23 -93 -3 -93 -3 5 -5 97 -2 97 -2 97
23 0 14 -2 25 -5 25 -3 0 -5 -9 -5 -20z"/>
<path fill="#3B589E" d="M6053 205 c0 -44 2 -61 4 -37 2 23 2 59 0 80 -2 20 -4 1 -4 -43z"/>
<path fill="#3B589E" d="M7481 263 c-1 -21 -6 -22 -93 -26 l-93 -3 93 -2 c95 -2 113 5 99 40
-3 7 -6 3 -6 -9z"/>
<path fill="#3B589E" d="M7192 245 c0 -16 2 -22 5 -12 2 9 2 23 0 30 -3 6 -5 -1 -5 -18z"/>
<path fill="#3B589E" d="M1322 235 c0 -16 2 -22 5 -12 2 9 2 23 0 30 -3 6 -5 -1 -5 -18z"/>
<path fill="#3B589E" d="M3362 225 c0 -16 2 -22 5 -12 2 9 2 23 0 30 -3 6 -5 -1 -5 -18z"/>
<path fill="#3B589E" d="M1238 198 c-10 -10 -14 -18 -9 -18 10 0 36 29 30 34 -2 1 -12 -6 -21
-16z"/>
<path fill="#3B589E" d="M3650 207 c0 -2 15 -16 33 -33 32 -29 32 -29 3 4 -28 30 -36 37 -36
29z"/>
<path fill="#3B589E" d="M1524 188 c-4 -7 -3 -8 5 -4 6 4 20 2 29 -6 15 -12 16 -11 3 5 -16
20 -27 22 -37 5z"/>
<path fill="#3B589E" d="M3014 188 c-4 -7 -3 -8 5 -4 6 4 20 2 29 -6 15 -12 16 -11 3 5 -16
20 -27 22 -37 5z"/>
<path fill="#3B589E" d="M5354 188 c-4 -7 -3 -8 5 -4 6 4 20 2 29 -6 15 -12 16 -11 3 5 -16
20 -27 22 -37 5z"/>
<path fill="#3B589E" d="M7534 188 c-4 -7 -3 -8 5 -4 6 4 20 2 29 -6 15 -12 16 -11 3 5 -16
20 -27 22 -37 5z"/>
<path fill="#3B589E" d="M1625 181 c-6 -5 -19 -11 -30 -14 -19 -4 -19 -5 1 -6 12 0 27 6 34
14 14 16 10 20 -5 6z"/>
<path fill="#3B589E" d="M1838 178 c6 -6 18 -8 28 -6 14 3 12 5 -9 10 -19 3 -25 2 -19 -4z"/>
<path fill="#3B589E" d="M2146 162 c-19 -27 -19 -27 5 -5 12 12 21 24 18 27 -2 2 -13 -8 -23
-22z"/>
<path fill="#3B589E" d="M3115 181 c-6 -5 -19 -11 -30 -14 -19 -4 -19 -5 1 -6 12 0 27 6 34
14 14 16 10 20 -5 6z"/>
<path fill="#3B589E" d="M4436 162 c-19 -27 -19 -27 5 -5 12 12 21 24 18 27 -2 2 -13 -8 -23
-22z"/>
<path fill="#3B589E" d="M5268 158 c-15 -15 -23 -28 -19 -28 9 0 56 49 50 53 -2 1 -16 -10
-31 -25z"/>
<path fill="#3B589E" d="M5455 181 c-6 -5 -19 -11 -30 -14 -19 -4 -19 -5 1 -6 12 0 27 6 34
14 14 16 10 20 -5 6z"/>
<path fill="#3B589E" d="M5796 162 c-19 -27 -19 -27 5 -5 12 12 21 24 18 27 -2 2 -13 -8 -23
-22z"/>
<path fill="#3B589E" d="M6258 178 c6 -6 18 -8 28 -6 14 3 12 5 -9 10 -19 3 -25 2 -19 -4z"/>
<path fill="#3B589E" d="M7448 158 c-15 -15 -23 -28 -19 -28 9 0 56 49 50 53 -2 1 -16 -10
-31 -25z"/>
<path fill="#3B589E" d="M7635 181 c-6 -5 -19 -11 -30 -14 -19 -4 -19 -5 1 -6 12 0 27 6 34
14 14 16 10 20 -5 6z"/>
<path fill="#3B589E" d="M3589 163 c-11 -15 -11 -16 1 -6 11 10 19 9 39 -10 26 -22 26 -22 2
6 -14 15 -25 27 -27 27 -1 0 -8 -8 -15 -17z"/>
<path fill="#3B589E" d="M3397 149 c12 -12 24 -21 27 -18 2 2 -8 13 -22 23 -27 19 -27 19 -5
-5z"/>
<path fill="#3B589E" d="M1104 146 c11 -9 24 -16 30 -16 12 0 7 5 -24 19 -24 11 -24 11 -6 -3z"/>
<path fill="#3B589E" d="M3140 139 c-19 -11 -28 -19 -19 -19 9 0 27 9 40 20 29 23 25 23 -21
-1z"/>
<path fill="#3B589E" d="M4582 83 c2 -78 2 -78 5 -5 4 72 4 72 26 57 12 -8 28 -15 36 -15 9 0
-2 9 -24 20 -22 11 -41 20 -42 20 -2 0 -2 -35 -1 -77z"/>
<path fill="#3B589E" d="M5505 150 c-3 -5 -20 -14 -38 -19 -23 -7 -26 -9 -11 -10 12 -1 32 8
45 19 13 10 21 19 17 20 -4 0 -10 -4 -13 -10z"/>
<path fill="#3B589E" d="M6300 147 c0 -8 -8 -18 -17 -20 -17 -4 -17 -5 0 -6 18 -1 35 25 23
36 -3 4 -6 -1 -6 -10z"/>
<path fill="#3B589E" d="M1994 136 c11 -9 27 -16 35 -15 14 0 14 1 1 6 -8 3 -24 10 -35 15
-20 9 -20 9 -1 -6z"/>
<path fill="#3B589E" d="M4284 136 c11 -9 27 -16 35 -15 14 0 14 1 1 6 -8 3 -24 10 -35 15
-20 9 -20 9 -1 -6z"/>
<path fill="#3B589E" d="M5644 136 c11 -9 27 -16 35 -15 14 0 14 1 1 6 -8 3 -24 10 -35 15
-20 9 -20 9 -1 -6z"/>
<path fill="#3B589E" d="M6734 49 c-3 -6 -1 -16 6 -22 10 -9 11 -9 5 2 -4 8 -2 17 6 22 9 6
10 9 2 9 -6 0 -15 -5 -19 -11z"/>
<path fill="#4D4D4D" d="M1158 494 c-24 -10 -42 -27 -53 -49 -27 -59 0 -107 80 -141 55 -22
75 -42 75 -74 0 -31 -15 -47 -45 -50 -43 -5 -65 1 -92 24 -28 24 -29 24 -41 5
-18 -28 -15 -37 20 -55 55 -29 89 -34 135 -22 54 13 83 48 83 98 0 50 -24 78
-101 115 -53 25 -65 35 -67 57 -2 20 4 31 22 43 26 17 34 16 98 -10 11 -4 20
0 27 14 10 17 7 22 -16 34 -46 24 -86 27 -125 11z"/>
<path fill="#4D4D4D" d="M3472 499 c-22 -7 -38 -20 -49 -44 -15 -31 -15 -36 5 -75 21 -42 21
-42 -19 -80 -31 -29 -39 -44 -39 -72 0 -96 126 -136 212 -68 25 19 25 19 48
-5 16 -18 34 -25 59 -25 35 0 35 0 -3 39 -37 38 -37 38 -12 68 19 23 22 33 14
41 -17 17 -32 15 -46 -8 -18 -29 -33 -25 -68 17 -31 37 -31 37 2 69 79 74 5
175 -104 143z m69 -39 c29 -16 25 -65 -7 -87 -26 -16 -27 -16 -45 6 -23 28
-24 54 -3 75 18 19 28 20 55 6z m-8 -205 c37 -44 37 -44 15 -59 -48 -34 -118
-12 -118 37 0 22 36 67 54 67 6 -1 28 -20 49 -45z"/>
<path fill="#4D4D4D" d="M3920 315 c0 -185 0 -185 30 -185 30 0 30 0 30 75 0 41 4 75 9 75 11
0 56 -50 96 -108 25 -34 36 -42 63 -42 17 0 32 2 32 6 0 3 -25 36 -56 75 -31
38 -55 71 -53 72 2 1 18 9 34 17 43 22 62 84 41 134 -20 48 -63 66 -156 66
l-70 0 0 -185z m163 114 c37 -45 7 -97 -61 -106 -42 -6 -42 -6 -42 67 0 73 0
73 43 66 24 -4 49 -15 60 -27z"/>
<path fill="#4D4D4D" d="M6973 466 c-22 -20 -25 -27 -16 -37 10 -10 17 -9 33 6 20 18 22 18
66 -3 55 -27 65 -27 98 -1 21 17 24 24 15 35 -10 13 -14 12 -29 -1 -22 -20
-33 -19 -77 5 -48 26 -56 25 -90 -4z"/>
<path fill="#4D4D4D" d="M1397 457 c-3 -8 1 -23 8 -34 11 -14 18 -16 32 -7 28 17 23 48 -8 52
-16 2 -29 -3 -32 -11z"/>
<path fill="#4D4D4D" d="M1780 405 c0 -33 -4 -45 -15 -45 -8 0 -15 -9 -15 -20 0 -11 7 -20 15
-20 12 0 15 -15 15 -74 0 -41 3 -82 6 -91 8 -21 45 -35 73 -28 29 7 27 41 -1
45 -21 3 -23 9 -26 76 -3 71 -3 72 23 72 18 0 25 5 25 20 0 15 -7 20 -25 20
-23 0 -25 4 -25 45 0 41 -2 45 -25 45 -23 0 -25 -4 -25 -45z"/>
<path fill="#4D4D4D" d="M6200 403 c0 -32 -4 -43 -15 -43 -8 0 -15 -9 -15 -20 0 -11 7 -20 15
-20 12 0 15 -15 15 -74 0 -41 3 -82 6 -91 8 -21 45 -35 73 -28 29 7 27 41 -1
45 -21 3 -23 9 -26 76 -3 71 -3 72 23 72 18 0 25 5 25 20 0 15 -7 20 -25 20
-23 0 -25 4 -25 45 0 42 -2 45 -25 43 -22 -2 -25 -7 -25 -45z"/>
<path fill="#4D4D4D" d="M1581 357 c-23 -8 -37 -21 -44 -40 -11 -35 5 -56 64 -82 30 -14 39
-24 37 -38 -5 -34 -34 -44 -69 -24 -32 18 -49 15 -49 -7 0 -19 46 -40 84 -39
44 1 75 19 86 48 16 41 1 65 -56 90 -55 25 -60 30 -45 54 8 13 23 13 70 0 8
-2 16 3 18 12 3 11 -6 20 -28 28 -18 6 -32 11 -33 10 -1 0 -16 -5 -35 -12z"/>
<path fill="#4D4D4D" d="M2010 357 c-41 -14 -80 -68 -80 -109 0 -78 82 -139 158 -118 49 13
83 47 62 60 -20 13 -26 12 -40 -5 -30 -36 -120 -8 -120 38 0 15 13 17 90 17
82 0 90 2 90 19 0 77 -80 126 -160 98z m73 -38 c22 -12 37 -28 37 -41 0 -5
-30 -8 -66 -8 -57 0 -65 2 -62 17 3 16 41 42 61 43 5 0 18 -5 30 -11z"/>
<path fill="#4D4D4D" d="M2325 354 c-19 -10 -31 -11 -33 -5 -2 6 -15 11 -28 11 -24 0 -24 0
-24 -115 0 -115 0 -115 25 -115 25 0 25 1 25 79 0 89 12 111 60 111 40 0 50
-23 50 -114 0 -74 1 -76 25 -76 24 0 25 2 25 76 0 94 10 114 55 114 45 0 55
-20 55 -114 0 -74 1 -76 25 -76 25 0 25 1 25 85 0 100 -12 131 -55 145 -36 12
-60 6 -92 -23 -14 -12 -23 -16 -23 -8 0 11 -57 41 -77 41 -4 0 -21 -7 -38 -16z"/>
<path fill="#4D4D4D" d="M2748 352 c-93 -47 -82 -189 17 -222 30 -10 41 -9 75 8 31 15 40 16
40 6 0 -9 11 -14 30 -14 30 0 30 0 30 115 0 115 0 115 -30 115 -20 0 -30 -5
-30 -15 0 -14 -3 -14 -22 -1 -36 23 -73 26 -110 8z m112 -52 c45 -45 13 -130
-50 -130 -41 0 -70 31 -70 75 0 44 29 75 70 75 17 0 39 -9 50 -20z"/>
<path fill="#4D4D4D" d="M3064 356 c-38 -17 -53 -60 -29 -86 8 -9 34 -25 56 -35 30 -14 39
-24 37 -38 -5 -34 -34 -44 -69 -24 -32 18 -49 15 -49 -7 0 -13 28 -30 67 -41
31 -9 91 20 102 48 17 43 2 67 -55 92 -55 25 -60 30 -45 54 8 13 23 13 70 0 8
-2 16 3 18 12 3 11 -6 20 -28 28 -39 13 -37 13 -75 -3z"/>
<path fill="#4D4D4D" d="M4313 360 c-113 -26 -126 -173 -20 -220 33 -15 51 -17 80 -10 37 8
77 35 77 50 0 16 -34 20 -50 5 -38 -34 -120 -8 -120 38 0 15 13 17 90 17 82 0
90 2 90 19 0 73 -68 119 -147 101z m60 -41 c22 -12 37 -28 37 -41 0 -5 -30 -8
-66 -8 -57 0 -65 2 -62 17 3 16 41 42 61 43 5 0 18 -5 30 -11z"/>
<path fill="#4D4D4D" d="M4617 351 c-29 -15 -37 -16 -37 -5 0 8 -10 14 -25 14 -25 0 -25 0
-25 -175 0 -175 0 -175 25 -173 24 2 25 5 25 75 0 40 1 73 3 73 1 0 20 -9 42
-20 78 -40 155 14 155 107 0 55 -31 100 -77 112 -48 14 -42 14 -86 -8z m92
-57 c28 -35 26 -69 -4 -99 -33 -34 -77 -33 -104 1 -12 15 -21 37 -21 49 0 68
88 101 129 49z"/>
<path fill="#4D4D4D" d="M4960 362 c-8 -2 -23 -11 -32 -20 -16 -14 -18 -13 -18 1 0 11 -8 17
-25 17 -25 0 -25 0 -25 -115 0 -115 0 -115 25 -115 24 0 25 2 25 73 0 91 17
121 66 115 26 -3 35 0 43 19 8 17 7 23 -2 24 -6 0 -19 2 -27 3 -8 2 -22 1 -30
-2z"/>
<path fill="#4D4D4D" d="M5140 357 c-41 -14 -80 -68 -80 -109 0 -78 82 -139 158 -118 49 13
83 47 62 60 -20 13 -26 12 -40 -5 -30 -36 -120 -8 -120 38 0 15 13 17 90 17
82 0 90 2 90 19 0 77 -80 126 -160 98z m73 -38 c22 -12 37 -28 37 -41 0 -5
-30 -8 -66 -8 -57 0 -65 2 -62 17 3 16 41 42 61 43 5 0 18 -5 30 -11z"/>
<path fill="#4D4D4D" d="M5404 355 c-38 -16 -53 -59 -29 -85 8 -9 34 -25 56 -35 30 -14 39
-24 37 -38 -5 -35 -34 -44 -70 -24 -20 12 -35 14 -41 8 -17 -17 1 -39 38 -50
73 -20 144 28 128 88 -4 15 -23 30 -59 46 -55 25 -60 30 -45 54 8 13 23 13 70
0 23 -6 25 28 2 36 -41 13 -58 13 -87 0z"/>
<path fill="#4D4D4D" d="M5673 360 c-113 -26 -126 -173 -20 -220 33 -15 51 -17 80 -10 37 8
77 35 77 50 0 16 -34 20 -50 5 -38 -34 -120 -8 -120 38 0 15 13 17 90 17 82 0
90 2 90 19 0 73 -68 119 -147 101z m60 -41 c22 -12 37 -28 37 -41 0 -5 -30 -8
-66 -8 -57 0 -65 2 -62 17 3 16 41 42 61 43 5 0 18 -5 30 -11z"/>
<path fill="#4D4D4D" d="M5995 363 c-11 -3 -26 -10 -34 -17 -11 -8 -15 -8 -18 2 -3 6 -16 12
-29 12 -24 0 -24 0 -24 -115 0 -115 0 -115 25 -115 25 0 25 1 25 79 0 89 12
111 60 111 44 0 60 -31 60 -117 0 -72 0 -73 26 -73 26 0 26 0 22 95 -2 78 -6
98 -23 114 -22 22 -59 32 -90 24z"/>
<path fill="#4D4D4D" d="M6433 359 c-63 -18 -97 -96 -70 -162 28 -65 105 -90 162 -53 22 14
25 15 25 1 0 -10 10 -15 30 -15 31 0 31 0 28 113 -3 112 -3 112 -30 115 -20 2
-28 -1 -28 -13 0 -14 -3 -14 -22 -1 -34 21 -59 25 -95 15z m97 -59 c45 -45 13
-130 -50 -130 -40 0 -70 31 -70 73 0 67 75 102 120 57z"/>
<path fill="#4D4D4D" d="M6760 356 c-42 -15 -80 -67 -80 -110 0 -43 31 -90 70 -106 26 -11 30
-17 26 -37 -6 -20 -3 -23 19 -23 19 0 25 -5 25 -21 0 -20 -4 -21 -41 -15 -47
8 -51 -12 -6 -28 62 -22 111 49 52 76 -35 16 -31 26 16 38 30 8 39 15 35 26
-3 9 -6 17 -6 19 0 1 -20 0 -44 -2 -55 -7 -86 19 -86 72 0 53 31 79 86 72 32
-3 44 -1 48 10 9 22 9 21 -31 32 -44 13 -39 13 -83 -3z"/>
<path fill="#4D4D4D" d="M7003 351 c-45 -21 -73 -62 -73 -106 0 -112 160 -163 234 -74 55 65
21 165 -62 189 -48 13 -50 13 -99 -9z m112 -56 c32 -31 32 -69 0 -100 -49 -50
-125 -20 -125 50 0 70 76 100 125 50z"/>
<path fill="#4D4D4D" d="M7320 357 c-41 -14 -80 -68 -80 -109 0 -69 57 -121 133 -121 37 0 86
26 94 50 6 18 -29 24 -47 8 -38 -34 -120 -8 -120 38 0 15 13 17 90 17 82 0 90
2 90 19 0 77 -80 126 -160 98z m73 -38 c22 -12 37 -28 37 -41 0 -5 -30 -8 -66
-8 -57 0 -65 2 -62 17 3 16 41 42 61 43 5 0 18 -5 30 -11z"/>
<path fill="#4D4D4D" d="M7584 356 c-38 -17 -53 -60 -29 -86 8 -9 34 -25 56 -35 30 -14 39
-24 37 -38 -5 -34 -34 -44 -69 -24 -32 18 -49 15 -49 -7 0 -13 28 -30 67 -41
31 -9 91 20 102 48 17 43 2 67 -55 92 -55 25 -60 30 -45 54 8 13 23 13 70 0 8
-2 16 3 18 12 3 11 -6 20 -28 28 -39 13 -37 13 -75 -3z"/>
<path fill="#4D4D4D" d="M1400 245 c0 -115 0 -115 25 -115 25 0 25 0 25 115 0 115 0 115 -25
115 -25 0 -25 0 -25 -115z"/>
</g>
</svg>
