<svg version="1.0" xmlns="http://www.w3.org/2000/svg" width="771pt" height="686pt" viewBox="0 0 771 686" preserveAspectRatio="xMidYMid meet">
<g transform="translate(0,686) scale(0.1,-0.1)" fill="#FFFFFF" stroke="none">
<path fill="#FFFFFF" d="M6586 6820 c-132 -205 -329 -433 -516 -594 -327 -283 -657 -471
-1310 -746 -737 -310 -944 -413 -1216 -602 -423 -293 -729 -687 -929 -1193
-26 -66 -49 -124 -52 -128 -3 -5 -24 26 -48 68 -231 404 -577 629 -1155 750
-288 60 -380 94 -517 191 -68 48 -78 52 -87 28 -14 -36 -4 -105 29 -199 34
-100 34 -100 -13 -140 -156 -133 -292 -326 -345 -490 -9 -27 -28 -93 -41 -146
-13 -53 -40 -130 -58 -170 -33 -72 -213 -368 -290 -478 -34 -48 -38 -61 -38
-113 0 -117 48 -279 94 -317 25 -21 113 -17 145 6 14 11 52 69 84 129 65 122
85 147 139 175 49 25 73 24 92 -3 36 -52 3 -157 -79 -251 -74 -85 -58 -103 86
-95 104 6 122 20 168 129 30 73 46 95 120 170 89 89 166 146 261 194 151 76
301 210 347 311 58 126 35 287 -62 443 -26 40 -44 75 -42 78 10 9 92 -106 123
-172 77 -165 69 -365 -21 -581 -86 -204 -107 -260 -127 -335 -12 -44 -19 -82
-15 -85 4 -4 533 -164 543 -164 1 0 2 -69 2 -153 1 -349 78 -574 269 -787 31
-36 143 -141 247 -235 255 -228 355 -356 446 -568 19 -43 39 -82 45 -87 26
-21 209 -42 410 -47 178 -4 231 -2 348 16 76 11 142 23 148 27 17 10 -11 24
-49 24 -106 0 -288 62 -404 136 -298 191 -482 634 -439 1054 15 138 35 217 81
317 85 182 173 229 785 417 416 128 578 192 775 302 254 143 458 356 569 595
47 100 94 249 89 284 -3 23 -8 21 -127 -56 -290 -190 -513 -298 -1136 -554
-454 -186 -635 -287 -799 -445 -107 -103 -202 -242 -256 -374 -81 -198 -128
-466 -132 -741 -1 -121 -2 -130 -8 -70 -12 109 -11 321 1 441 51 525 265 843
724 1076 128 64 260 119 620 253 143 54 320 124 394 157 458 202 781 462 1013
818 79 120 206 365 196 376 -8 8 -12 5 -141 -93 -154 -117 -314 -219 -527
-336 -127 -69 -350 -166 -700 -307 -387 -154 -645 -274 -785 -365 -493 -317
-769 -778 -946 -1580 -29 -130 -29 -130 -23 -50 14 203 70 483 139 690 67 203
192 434 324 598 62 78 227 239 307 299 196 150 495 310 844 453 102 41 205 84
230 95 25 10 104 44 175 73 373 157 648 305 870 469 135 100 377 340 473 468
139 187 259 404 346 629 57 145 46 149 -63 25 -280 -315 -648 -595 -1056 -804
-202 -103 -306 -147 -726 -310 -488 -189 -670 -275 -879 -415 -504 -337 -808
-835 -1026 -1678 -39 -152 -44 -164 -38 -102 18 212 93 551 169 759 234 646
634 1051 1375 1391 80 37 305 134 500 215 522 217 706 305 937 448 308 191
576 437 759 697 159 225 284 480 378 774 45 137 45 179 2 111z"/>
<path fill="#FFFFFF" d="M1106 2542 c-20 -19 2 -321 34 -487 117 -601 512 -1081 1107 -1345
139 -62 343 -130 412 -137 53 -6 53 -6 46 18 -15 52 -86 192 -135 265 -69 101
-169 205 -361 375 -85 75 -182 166 -213 201 -191 209 -267 422 -284 791 -8
172 26 145 -307 242 -235 69 -293 84 -299 77z"/>
</g></svg>
